<?xml version="1.0" encoding="UTF-8"?><svg width="498.25" height="498.27" viewBox="0 0 131.83 131.84" xmlns="http://www.w3.org/2000/svg"><g transform="matrix(.97322 0 0 .97322 -.0098412 -157.21)"><path d="m135.47 229.3a67.65 67.699 0 0 1-67.65 67.699 67.65 67.699 0 0 1-67.65-67.699 67.65 67.699 0 0 1 67.65-67.699 67.65 67.699 0 0 1 67.65 67.699z" opacity=".45"/><g transform="matrix(1.6965,0,0,1.6818,-94.261,76.503)"><g transform="translate(-3.0238,2.6458)"><g transform="translate(-76.351,-23.813)"><path d="m209.4 109.52a22.679 21.923 0 0 1-22.679 21.923 22.679 21.923 0 0 1-22.679-21.923 22.679 21.923 0 0 1 22.679-21.923 22.679 21.923 0 0 1 22.679 21.923z" fill="#36ffce" opacity=".85"/></g><path d="m120.2 86.845a22.301 21.545 0 0 1-22.301 21.545 22.301 21.545 0 0 1-22.301-21.545 22.301 21.545 0 0 1 22.301-21.545 22.301 21.545 0 0 1 22.301 21.545z" fill="#433dff" opacity=".9"/><path d="m114.9 78.908a22.679 21.923 0 0 1-22.679 21.923 22.679 21.923 0 0 1-22.679-21.923 22.679 21.923 0 0 1 22.679-21.923 22.679 21.923 0 0 1 22.679 21.923z" fill="#c931ff" opacity=".9"/></g><path d="m110.75 100.45a22.679 21.923 0 0 1-22.679 21.923 22.679 21.923 0 0 1-22.679-21.923 22.679 21.923 0 0 1 22.679-21.923 22.679 21.923 0 0 1 22.679 21.923z" fill="#8731ff" opacity=".85"/><path d="m135.32 90.814a39.876 40.254 0 0 1-39.876 40.254 39.876 40.254 0 0 1-39.876-40.254 39.876 40.254 0 0 1 39.876-40.254 39.876 40.254 0 0 1 39.876 40.254z" fill="#8731ff" opacity=".7"/></g><g transform="matrix(.26458 0 0 .26458 4.101 165.63)"><path d="m410.6 70.4c-45.5-45.4-105.9-70.4-170.1-70.4s-124.6 25-170.1 70.4c-45.4 45.5-70.4 105.9-70.4 170.1s25 124.6 70.4 170.1c45.4 45.4 105.8 70.4 170.1 70.4s124.6-25 170.1-70.4c45.4-45.4 70.4-105.8 70.4-170.1s-25-124.6-70.4-170.1zm-170.1 383.6c-117.7 0-213.5-95.8-213.5-213.5s95.8-213.5 213.5-213.5 213.5 95.8 213.5 213.5-95.8 213.5-213.5 213.5z"/><path d="m349.2 229.1-152.6-97.9c-4.2-2.7-9.4-2.9-13.8-0.5-4.3 2.4-7 6.9-7 11.8v195.7c0 4.9 2.7 9.5 7 11.8 2 1.1 4.3 1.7 6.5 1.7 2.5 0 5.1-0.7 7.3-2.1l152.6-97.9c3.9-2.5 6.2-6.8 6.2-11.4s-2.4-8.7-6.2-11.2zm-146.4 84.6v-146.4l114.1 73.2z"/></g></g></svg>